# xmcd CD database file
#
# Track frame offsets:
#	150
#	13097
#	32300
#	49787
#	62815
#	81000
#	101097
#	117925
#	137707
#	160590
#
# Disc length: 2375 seconds
#
# Revision: 0
# Processed by: cddbd v1.5.1PL0 Copyright (c) Steve Scherf et al.
# Submitted via: CDex 1.51
#
DISCID=7709450a
DTITLE=pokka - Pokka Coffee Original 29th Anniversary Spesial CD disk1
DYEAR=2000
DGENRE=JPop
TTITLE0=よしだたくろう/旅の宿
TTITLE1=山本コウタローとウイークエンド/岬めぐり
TTITLE2=太田裕美/木綿のハンカチーフ
TTITLE3=森田公一とトップギャラン/青春時代
TTITLE4=河島英五/酒と泪と男と女
TTITLE5=中原理恵/東京ららばい
TTITLE6=久保田早紀/異邦人
TTITLE7=上田正樹/悲しい色やね
TTITLE8=THE BOOM/島唄
TTITLE9=奥田民生/イージュー★ライダー
EXTD=YEAR: 2000
EXTT0=
EXTT1=
EXTT2=
EXTT3=
EXTT4=
EXTT5=
EXTT6=
EXTT7=
EXTT8=
EXTT9=
PLAYORDER=
